HIERARCHY
ROOT Hips
{
     OFFSET -8.00444 100.12900 13.79480
     CHANNELS 6 Xposition Yposition Zposition Zrotation Xrotation Yrotation
     JOINT Spine
     {
          OFFSET -0.00000 11.89050 -0.00000
          CHANNELS 3 Zrotation Xrotation Yrotation
          JOINT Spine1
          {
               OFFSET -0.00000 25.65740 0.12766
               CHANNELS 3 Zrotation Xrotation Yrotation
               JOINT HEad
               {
                    OFFSET -0.00000 8.73416 0.01134
                    CHANNELS 3 Zrotation Xrotation Yrotation
                    End Site
                    {
                         OFFSET -0.29000 12.77420 2.51395
                    }
               }
               JOINT LeftShoulder1
               {
                    OFFSET 8.99000 -0.36225 -0.22000
                    CHANNELS 3 Zrotation Xrotation Yrotation
                    JOINT LeftArm
                    {
                         OFFSET 10.28270 -0.00338 0.32212
                         CHANNELS 3 Zrotation Xrotation Yrotation
                         JOINT LeftForeArm
                         {
                              OFFSET 32.76690 0.09914 -1.42434
                              CHANNELS 3 Zrotation Xrotation Yrotation
                              JOINT LeftHand
                              {
                                   OFFSET 27.56430 0.08536 1.02216
                                   CHANNELS 3 Zrotation Xrotation Yrotation
                                   End Site
                                   {
                                        OFFSET 16.74430 -0.60000 1.50291
                                   }
                              }
                         }
                    }
               }
               JOINT RightShoulder
               {
                    OFFSET -8.99000 -0.36225 -0.22000
                    CHANNELS 3 Zrotation Xrotation Yrotation
                    JOINT RightArm
                    {
                         OFFSET -10.28270 -0.00338 0.32212
                         CHANNELS 3 Zrotation Xrotation Yrotation
                         JOINT RightForeArm
                         {
                              OFFSET -32.89710 0.09914 -1.42434
                              CHANNELS 3 Zrotation Xrotation Yrotation
                              JOINT RightHand
                              {
                                   OFFSET -27.49210 0.08536 1.02216
                                   CHANNELS 3 Zrotation Xrotation Yrotation
                                   End Site
                                   {
                                        OFFSET -16.63120 -0.60000 1.50291
                                   }
                              }
                         }
                    }
               }
          }
     }
     JOINT LeftUpLeg
     {
          OFFSET 8.94580 -8.66707 0.10165
          CHANNELS 3 Zrotation Xrotation Yrotation
          JOINT LeftLeg
          {
               OFFSET -0.00000 -44.42270 1.37270
               CHANNELS 3 Zrotation Xrotation Yrotation
               JOINT LeftFoot
               {
                    OFFSET -0.25355 -42.09240 -1.46059
                    CHANNELS 3 Zrotation Xrotation Yrotation
                    JOINT LeftToes
                    {
                         OFFSET -0.04000 -4.41509 8.49910
                         CHANNELS 3 Zrotation Xrotation Yrotation
                         End Site
                         {
                              OFFSET 0.08000 -0.04745 9.77979
                         }
                    }
               }
          }
     }
     JOINT RightUpLeg
     {
          OFFSET -8.94580 -8.66707 0.10165
          CHANNELS 3 Zrotation Xrotation Yrotation
          JOINT RightLeg
          {
               OFFSET -0.00000 -44.42270 1.37270
               CHANNELS 3 Zrotation Xrotation Yrotation
               JOINT RightFoot
               {
                    OFFSET 0.25355 -42.09240 -1.46059
                    CHANNELS 3 Zrotation Xrotation Yrotation
                    JOINT RightToes
                    {
                         OFFSET 0.04000 -4.41509 8.49910
                         CHANNELS 3 Zrotation Xrotation Yrotation
                         End Site
                         {
                              OFFSET -0.08000 -0.13745 9.77979
                         }
                    }
               }
          }
     }
}
MOTION
Frames: 16
Frame Time: 0.01667
-8.00444 100.12900 13.79480 -1.38899 -2.98749 -19.39610 1.05447 3.81878 2.32641 0.45326 7.69626 4.68439 -1.46895 4.87662 22.75880 -0.00000 -0.00000 0.00000 -85.51220 -34.74180 -92.65760 -17.35570 28.49270 -77.85850 5.55594 9.67997 -0.87718 12.72170 0.95734 3.45558 68.05140 -29.66330 88.87230 14.73870 28.33820 84.18510 -5.55712 9.68432 0.87760 5.62699 -8.05783 -2.39096 7.32842 11.59270 -28.44530 -13.84610 -14.51310 -0.77429 -0.43943 11.20580 0.45671 -0.69738 -6.24895 -3.92889 -7.15398 19.00950 18.48560 2.84559 -17.86080 0.01920 6.64089 6.74610 -2.78857 
-7.31379 100.19400 13.61340 -1.41907 -2.59740 -20.87490 0.90347 3.94460 2.45882 0.49503 7.94440 4.92749 -1.89264 4.69162 23.07770 -0.00000 -0.00000 0.00000 -86.40020 -34.63680 -95.02630 -17.07430 27.55040 -77.17910 5.55594 9.67997 -0.87718 11.20130 0.83474 3.09502 70.10410 -27.50690 91.48870 14.58590 27.98240 84.24480 -5.55712 9.68432 0.87760 5.78479 -8.40353 -2.17230 6.83101 11.72640 -27.11070 -13.66810 -14.43720 -0.75442 -0.46179 11.83560 0.46843 -0.94302 -7.00241 -4.48327 -7.53793 18.72710 20.41520 5.03807 -19.51290 0.28387 8.77322 9.07209 -3.57361 
-6.65457 100.24300 13.43200 -1.50163 -2.28934 -22.26790 0.72811 4.10168 2.57584 0.50941 8.25448 5.14808 -2.30279 4.68407 23.45110 -0.00000 -0.00000 0.00000 -86.83630 -34.59090 -97.17700 -16.69080 26.39590 -76.46530 5.55594 9.67997 -0.87718 9.68394 0.72603 2.76339 71.38100 -25.49690 93.90130 14.07760 26.93320 84.22930 -5.55712 9.68432 0.87760 6.00704 -8.71744 -2.08816 6.31753 11.98850 -25.80700 -13.57520 -14.55660 -0.76263 -0.54371 12.76340 0.63373 -1.13925 -7.61859 -4.95308 -7.84338 18.55680 21.36820 7.23957 -21.13530 0.61505 10.75470 11.08990 -4.45920 
-6.03953 100.28000 13.26560 -1.63601 -2.07186 -23.48310 0.52148 4.28041 2.65873 0.51061 8.60600 5.30498 -2.63456 4.80436 23.94590 -0.00000 -0.00000 0.00000 -86.75120 -34.56670 -98.99990 -16.18270 24.99560 -75.73180 5.55594 9.67997 -0.87718 8.33393 0.64265 2.51661 71.77270 -23.75880 96.15320 13.23310 25.18710 84.06540 -5.55712 9.68432 0.87760 6.20628 -8.96724 -2.08382 5.89726 12.30160 -24.64180 -13.32420 -14.63810 -0.75633 -0.63916 13.38820 0.86141 -1.35267 -8.08664 -5.31523 -7.99304 18.72890 21.02740 9.28865 -22.61070 0.98104 12.46830 12.75860 -5.28729 
-5.47229 100.31000 13.13140 -1.81057 -1.92687 -24.45300 0.32895 4.45416 2.70240 0.51681 8.94964 5.38220 -2.84318 5.06216 24.50690 -0.00000 -0.00000 0.00000 -86.14700 -34.52180 -100.40400 -15.55080 23.36270 -74.99370 5.55594 9.67997 -0.87718 7.24490 0.58510 2.36693 71.27520 -22.37660 98.23330 12.11440 22.80700 83.66710 -5.55712 9.68432 0.87760 6.34398 -9.16109 -2.18622 5.59698 12.61640 -23.61530 -12.93490 -14.57950 -0.72540 -0.69259 13.51280 1.00850 -1.65302 -8.44076 -5.58029 -7.94933 19.49360 19.44860 10.89190 -23.74410 1.30578 13.68550 13.95550 -5.84275 
-4.95195 100.34300 13.04240 -2.01385 -1.81809 -25.16450 0.23706 4.59658 2.71090 0.54606 9.23087 5.39019 -2.92023 5.45591 25.02280 -0.00000 -0.00000 0.00000 -85.13060 -34.42320 -101.36000 -14.83600 21.58280 -74.26490 5.55594 9.67997 -0.87718 6.39634 0.54624 2.28967 70.02040 -21.35400 100.09200 10.80310 19.92490 82.99240 -5.55712 9.68432 0.87760 6.44392 -9.32384 -2.38184 5.38722 12.90160 -22.73000 -12.63650 -14.44190 -0.69203 -0.67493 13.39190 0.96794 -2.07489 -8.71483 -5.77004 -7.72828 20.98200 17.09120 11.74140 -24.31200 1.48876 14.11600 14.53030 -5.85978 
-4.48523 100.37100 13.00190 -2.19958 -1.72816 -25.66490 0.24129 4.68700 2.70073 0.58926 9.40825 5.36293 -2.90661 5.93143 25.41610 -0.00000 -0.00000 0.00000 -83.87480 -34.25480 -101.90800 -14.10390 19.79160 -73.56730 5.55594 9.67997 -0.87718 5.72491 0.51933 2.26035 68.23290 -20.64510 101.67200 9.39164 16.74390 82.06920 -5.55712 9.68432 0.87760 6.50570 -9.49142 -2.56787 5.23800 13.17700 -22.03220 -12.54240 -14.30410 -0.67159 -0.57963 13.21980 0.69927 -2.66735 -8.94523 -5.86872 -7.36853 23.22140 14.61070 11.73010 -24.21430 1.47698 13.58220 14.37160 -5.18930 
-4.08672 100.37700 13.00040 -2.32253 -1.65261 -26.03570 0.27701 4.72034 2.69249 0.61993 9.46554 5.34836 -2.88038 6.42316 25.67040 -0.00000 -0.00000 0.00000 -82.54770 -34.02620 -102.12700 -13.41800 18.12520 -72.93250 5.55594 9.67997 -0.87718 5.19312 0.50031 2.26001 66.20980 -20.18280 102.94300 7.99600 13.55080 80.98830 -5.55712 9.68432 0.87760 6.51206 -9.69750 -2.61208 5.14802 13.49560 -21.58300 -12.56130 -14.21530 -0.66322 -0.43269 13.02200 0.27488 -3.44093 -9.12544 -5.80841 -6.93074 26.08430 12.59340 11.12040 -23.61810 1.32702 12.36720 13.58860 -4.12690 
-3.76008 100.35900 13.02890 -2.36576 -1.59224 -26.35340 0.28978 4.69705 2.70484 0.62126 9.40919 5.37963 -2.93102 6.86327 25.80990 -0.00000 -0.00000 0.00000 -81.29630 -33.77430 -102.12600 -12.82620 16.69470 -72.39220 5.55594 9.67997 -0.87718 4.77387 0.48505 2.25631 64.29890 -19.87510 103.91000 6.74681 10.67680 79.88910 -5.55712 9.68432 0.87760 6.44676 -9.93212 -2.46057 5.13280 13.86140 -21.38360 -12.59400 -14.22390 -0.66607 -0.28818 12.89150 -0.15128 -4.34967 -9.18533 -5.51959 -6.48317 29.29700 11.35790 10.36240 -22.87890 1.15064 11.15770 12.62860 -3.24972 
-3.50103 100.32100 13.07670 -2.34706 -1.53977 -26.65180 0.27292 4.63036 2.73861 0.60388 9.26747 5.45374 -3.10989 7.16026 25.89070 -0.00000 -0.00000 0.00000 -80.26390 -33.54660 -102.01900 -12.36240 15.58640 -71.97200 5.55594 9.67997 -0.87718 4.41213 0.46815 2.20753 62.82690 -19.60860 104.61900 5.75009 8.39626 78.93280 -5.55712 9.68432 0.87760 6.32740 -10.18700 -2.16980 5.19009 14.27150 -21.36240 -12.62410 -14.36150 -0.68263 -0.18070 12.92640 -0.47886 -5.32207 -9.05914 -4.99389 -6.03416 32.57150 10.83750 9.72555 -22.22650 1.00823 10.40290 11.88670 -2.86184 
-3.30419 100.27500 13.13080 -2.29584 -1.48857 -26.92880 0.23103 4.53787 2.78420 0.58826 9.07494 5.54837 -3.37512 7.23661 25.98160 -0.00000 -0.00000 0.00000 -79.55330 -33.37490 -101.89000 -12.04870 14.85340 -71.69210 5.55594 9.67997 -0.87718 4.06144 0.44684 2.09411 62.01300 -19.29770 105.10300 5.07145 6.87205 78.26080 -5.55712 9.68432 0.87760 6.19005 -10.43990 -1.83528 5.28947 14.67740 -21.41620 -12.63540 -14.54310 -0.70286 -0.10020 12.98970 -0.72610 -6.31715 -8.69849 -4.29076 -5.50127 35.64310 10.63340 9.25473 -21.63130 0.89918 10.06330 11.36680 -2.91596 
-3.16234 100.22600 13.18260 -2.24341 -1.43507 -27.17410 0.18327 4.42974 2.83493 0.57826 8.85193 5.65061 -3.61325 7.09759 26.11870 -0.00000 -0.00000 0.00000 -79.17360 -33.26870 -101.76200 -11.89580 14.51130 -71.56550 5.55594 9.67997 -0.87718 3.74778 0.42422 1.93828 61.92940 -18.92700 105.34100 4.75368 6.18510 77.97230 -5.55712 9.68432 0.87760 6.06560 -10.67820 -1.52793 5.40372 15.05390 -21.47030 -12.55390 -14.61990 -0.70602 -0.01971 12.72950 -0.95485 -7.31874 -8.08353 -3.49403 -4.78130 38.32010 10.22280 8.95289 -20.98920 0.81237 9.92226 10.91050 -3.24142 
-3.06746 100.18000 13.22530 -2.19932 -1.38243 -27.39140 0.13731 4.30730 2.89086 0.55711 8.60140 5.76395 -3.74204 6.84531 26.29840 -0.00000 -0.00000 0.00000 -79.05690 -33.23670 -101.61100 -11.90190 14.54430 -71.59250 5.55594 9.67997 -0.87718 3.53863 0.40591 1.78463 62.51670 -18.52830 105.25400 4.81279 6.34688 78.11110 -5.55712 9.68432 0.87760 5.95780 -10.88760 -1.29536 5.51509 15.37630 -21.46830 -12.30760 -14.45250 -0.67310 0.07240 11.81720 -1.18949 -8.32066 -7.22267 -2.67573 -3.84599 40.47350 9.17940 8.85542 -20.20580 0.74215 9.72038 10.36980 -3.57374 
-3.01104 100.13700 13.25080 -2.14687 -1.33978 -27.60900 0.08346 4.17222 2.95923 0.50513 8.32613 5.90339 -3.77826 6.62722 26.49370 -0.00000 -0.00000 0.00000 -79.12230 -33.29220 -101.41100 -12.04800 14.90780 -71.75730 5.55594 9.67997 -0.87718 3.46358 0.39472 1.66506 63.64800 -18.13630 104.78800 5.22510 7.30146 78.65090 -5.55712 9.68432 0.87760 5.85612 -11.05870 -1.17149 5.59184 15.63420 -21.34630 -11.89390 -14.01580 -0.60383 0.16533 10.22910 -1.40606 -9.31894 -6.15149 -1.89090 -2.78781 42.02250 7.33341 8.98825 -19.17110 0.67897 9.10625 9.54948 -3.54435 
-2.98633 100.09100 13.25020 -2.05542 -1.31689 -27.86650 0.00037 4.03319 3.05217 0.41127 8.04040 6.08731 -3.77891 6.51267 26.66130 -0.00000 -0.00000 0.00000 -79.31540 -33.43540 -101.16700 -12.29560 15.52870 -72.03400 5.55594 9.67997 -0.87718 3.51076 0.39065 1.59095 65.18770 -17.78870 103.94700 5.95078 8.97243 79.50420 -5.55712 9.68432 0.87760 5.75033 -11.20040 -1.16519 5.59658 15.85280 -21.06840 -11.39860 -13.48190 -0.52425 0.22334 8.43835 -1.51366 -10.31280 -4.92512 -1.19217 -1.78819 42.93570 4.85138 9.39031 -17.87830 0.61863 7.91620 8.38218 -2.93083 
-2.98988 100.03600 13.21520 -1.90070 -1.31677 -28.19320 -0.12295 3.89909 3.17509 0.27356 7.75894 6.32129 -3.74225 6.42612 26.77310 -0.00000 -0.00000 0.00000 -79.60940 -33.66370 -100.89500 -12.60080 16.32500 -72.39700 5.55594 9.67997 -0.87718 3.67693 0.39428 1.57370 66.96090 -17.53460 102.78100 6.93899 11.25340 80.54560 -5.55712 9.68432 0.87760 5.63457 -11.33340 -1.25052 5.51885 16.07230 -20.66340 -10.93520 -13.11350 -0.46627 0.20705 7.11617 -1.39164 -11.30390 -3.60684 -0.63350 -1.00611 43.22670 2.18644 10.09220 -16.52310 0.56807 6.47427 7.12514 -1.93974 
